<svg xmlns="http://www.w3.org/2000/svg" viewBox="0 0 505.5 471.5"><defs><style>.cls-1{fill:#006837;}.cls-2{fill:#fff;}</style></defs><title>Asset 1</title><g id="Layer_2" data-name="Layer 2"><g id="Layer_1-2" data-name="Layer 1"><ellipse class="cls-1" cx="233.27" cy="251.73" rx="122.38" ry="122.87"/><rect class="cls-1" x="220.78" y="39.96" width="23.98" height="93.9"/><rect class="cls-1" x="347.65" y="96.9" width="23.98" height="93.9" transform="translate(207.04 -212.17) rotate(45)"/><rect class="cls-1" x="353.49" y="200.72" width="14.93" height="37.41" transform="translate(257.58 628.99) rotate(-107.13)"/><rect class="cls-1" x="399.32" y="230.66" width="20.08" height="116.77" transform="translate(39.62 627.29) rotate(-77.68)"/><rect class="cls-1" x="363.61" y="294.1" width="19.66" height="103" transform="translate(-122.07 461.19) rotate(-55.91)"/><rect class="cls-1" x="235.15" y="363.83" width="15.88" height="69.15" transform="translate(-19.53 12.59) rotate(-2.85)"/><rect class="cls-1" x="98.9" y="96.9" width="23.98" height="93.9" transform="translate(-69.24 120.53) rotate(-45)"/><rect class="cls-1" x="285.88" y="87.14" width="16.26" height="60.17" transform="translate(62.15 -98.24) rotate(21.16)"/><rect class="cls-1" x="154.5" y="59.54" width="21.41" height="89.91" transform="translate(-30.12 96.6) rotate(-30)"/><rect class="cls-1" x="178.43" y="364.42" width="23.54" height="56.91" transform="translate(127.85 -39.14) rotate(17.62)"/><rect class="cls-1" x="303.7" y="335.64" width="23.98" height="93.9" transform="translate(-162.37 250.32) rotate(-35.01)"/><rect class="cls-1" x="104.89" y="321.66" width="23.98" height="93.9" transform="translate(294.86 25.31) rotate(45)"/><rect class="cls-1" x="70.92" y="264.72" width="23.97" height="93.91" transform="translate(349.88 130.73) rotate(70.77)"/><rect class="cls-1" x="74.51" y="201.07" width="17.63" height="63.91" transform="translate(323.86 174.83) rotate(96.07)"/><circle class="cls-1" cx="233.76" cy="29.97" r="29.97"/><circle class="cls-1" cx="139.86" cy="59.94" r="29.97"/><circle class="cls-1" cx="71.92" cy="104.89" r="29.97"/><circle class="cls-1" cx="61.43" cy="233.25" r="21.48"/><circle class="cls-1" cx="29.97" cy="329.65" r="29.97"/><circle class="cls-1" cx="386.12" cy="211.28" r="21.48"/><circle class="cls-1" cx="475.53" cy="303.68" r="29.97"/><circle class="cls-1" cx="180.82" cy="423.55" r="22.98"/><circle class="cls-1" cx="86.91" cy="398.58" r="29.97"/><circle class="cls-1" cx="343.66" cy="422.55" r="29.97"/><circle class="cls-1" cx="427.57" cy="382.6" r="29.97"/><circle class="cls-1" cx="243.26" cy="446.03" r="25.48"/><circle class="cls-1" cx="397.61" cy="103.89" r="29.97"/><circle class="cls-1" cx="301.7" cy="96.9" r="22.98"/><circle class="cls-2" cx="217.78" cy="184.8" r="25.97"/><circle class="cls-2" cx="288.71" cy="273.71" r="35.96"/><circle class="cls-2" cx="173.32" cy="277.21" r="18.48"/></g></g></svg>